<svg width="150" height="56" viewBox="0 0 150 56" fill="none" xmlns="http://www.w3.org/2000/svg">
<path d="M7.22656 39H3.90625V10.4453H19.8047V13.375H7.22656V23.8438H19.043V26.7539H7.22656V39ZM42.5391 28.2578C42.5391 30.0156 42.3112 31.5846 41.8555 32.9648C41.3997 34.3451 40.7422 35.5104 39.8828 36.4609C39.0234 37.4115 37.9818 38.1406 36.7578 38.6484C35.5469 39.1432 34.1732 39.3906 32.6367 39.3906C31.2044 39.3906 29.8893 39.1432 28.6914 38.6484C27.5065 38.1406 26.4779 37.4115 25.6055 36.4609C24.7461 35.5104 24.0755 34.3451 23.5938 32.9648C23.125 31.5846 22.8906 30.0156 22.8906 28.2578C22.8906 25.9141 23.2878 23.9219 24.082 22.2812C24.8763 20.6276 26.0091 19.3711 27.4805 18.5117C28.9648 17.6393 30.7292 17.2031 32.7734 17.2031C34.7266 17.2031 36.4323 17.6393 37.8906 18.5117C39.362 19.3841 40.5013 20.6471 41.3086 22.3008C42.1289 23.9414 42.5391 25.9271 42.5391 28.2578ZM26.25 28.2578C26.25 29.9766 26.4779 31.4674 26.9336 32.7305C27.3893 33.9935 28.0924 34.9701 29.043 35.6602C29.9935 36.3503 31.2174 36.6953 32.7148 36.6953C34.1992 36.6953 35.4167 36.3503 36.3672 35.6602C37.3307 34.9701 38.0404 33.9935 38.4961 32.7305C38.9518 31.4674 39.1797 29.9766 39.1797 28.2578C39.1797 26.5521 38.9518 25.0807 38.4961 23.8438C38.0404 22.5938 37.3372 21.6302 36.3867 20.9531C35.4362 20.276 34.2057 19.9375 32.6953 19.9375C30.4688 19.9375 28.8346 20.6732 27.793 22.1445C26.7643 23.6159 26.25 25.6536 26.25 28.2578ZM66.6016 28.2578C66.6016 30.0156 66.3737 31.5846 65.918 32.9648C65.4622 34.3451 64.8047 35.5104 63.9453 36.4609C63.0859 37.4115 62.0443 38.1406 60.8203 38.6484C59.6094 39.1432 58.2357 39.3906 56.6992 39.3906C55.2669 39.3906 53.9518 39.1432 52.7539 38.6484C51.569 38.1406 50.5404 37.4115 49.668 36.4609C48.8086 35.5104 48.138 34.3451 47.6562 32.9648C47.1875 31.5846 46.9531 30.0156 46.9531 28.2578C46.9531 25.9141 47.3503 23.9219 48.1445 22.2812C48.9388 20.6276 50.0716 19.3711 51.543 18.5117C53.0273 17.6393 54.7917 17.2031 56.8359 17.2031C58.7891 17.2031 60.4948 17.6393 61.9531 18.5117C63.4245 19.3841 64.5638 20.6471 65.3711 22.3008C66.1914 23.9414 66.6016 25.9271 66.6016 28.2578ZM50.3125 28.2578C50.3125 29.9766 50.5404 31.4674 50.9961 32.7305C51.4518 33.9935 52.1549 34.9701 53.1055 35.6602C54.056 36.3503 55.2799 36.6953 56.7773 36.6953C58.2617 36.6953 59.4792 36.3503 60.4297 35.6602C61.3932 34.9701 62.1029 33.9935 62.5586 32.7305C63.0143 31.4674 63.2422 29.9766 63.2422 28.2578C63.2422 26.5521 63.0143 25.0807 62.5586 23.8438C62.1029 22.5938 61.3997 21.6302 60.4492 20.9531C59.4987 20.276 58.2682 19.9375 56.7578 19.9375C54.5312 19.9375 52.8971 20.6732 51.8555 22.1445C50.8268 23.6159 50.3125 25.6536 50.3125 28.2578ZM79.1211 36.7344C79.6549 36.7344 80.2018 36.6888 80.7617 36.5977C81.3216 36.5065 81.7773 36.3958 82.1289 36.2656V38.7852C81.7513 38.9544 81.224 39.0977 80.5469 39.2148C79.8828 39.332 79.2318 39.3906 78.5938 39.3906C77.4609 39.3906 76.4323 39.1953 75.5078 38.8047C74.5833 38.401 73.8411 37.724 73.2812 36.7734C72.7344 35.8229 72.4609 34.5078 72.4609 32.8281V20.1328H69.4141V18.5508L72.4805 17.2812L73.7695 12.6328H75.7227V17.5938H81.9922V20.1328H75.7227V32.7305C75.7227 34.0716 76.0286 35.0742 76.6406 35.7383C77.2656 36.4023 78.0924 36.7344 79.1211 36.7344ZM89.707 8.60938V16.207C89.707 17.0794 89.681 17.9258 89.6289 18.7461C89.5898 19.5664 89.5573 20.2044 89.5312 20.6602H89.707C90.293 19.6966 91.1393 18.8828 92.2461 18.2188C93.3529 17.5547 94.7656 17.2227 96.4844 17.2227C99.1667 17.2227 101.302 18.1536 102.891 20.0156C104.492 21.8646 105.293 24.6185 105.293 28.2773C105.293 30.6862 104.928 32.7174 104.199 34.3711C103.47 36.0247 102.441 37.2747 101.113 38.1211C99.7852 38.9674 98.2161 39.3906 96.4062 39.3906C94.7135 39.3906 93.3203 39.0781 92.2266 38.4531C91.1458 37.8151 90.3125 37.0404 89.7266 36.1289H89.4727L88.8086 39H86.4648V8.60938H89.707ZM95.957 19.9375C94.4076 19.9375 93.1771 20.2435 92.2656 20.8555C91.3542 21.4544 90.6966 22.3659 90.293 23.5898C89.9023 24.8008 89.707 26.3372 89.707 28.1992V28.375C89.707 31.0703 90.1562 33.1341 91.0547 34.5664C91.9531 35.9857 93.5872 36.6953 95.957 36.6953C97.9492 36.6953 99.4401 35.9661 100.43 34.5078C101.432 33.0495 101.934 30.9661 101.934 28.2578C101.934 25.4974 101.439 23.4206 100.449 22.0273C99.4727 20.6341 97.9753 19.9375 95.957 19.9375ZM118.965 17.2422C121.517 17.2422 123.411 17.8151 124.648 18.9609C125.885 20.1068 126.504 21.9362 126.504 24.4492V39H124.141L123.516 35.8359H123.359C122.76 36.6172 122.135 37.2747 121.484 37.8086C120.833 38.3294 120.078 38.7266 119.219 39C118.372 39.2604 117.331 39.3906 116.094 39.3906C114.792 39.3906 113.633 39.1628 112.617 38.707C111.615 38.2513 110.82 37.5612 110.234 36.6367C109.661 35.7122 109.375 34.5404 109.375 33.1211C109.375 30.9857 110.221 29.3451 111.914 28.1992C113.607 27.0534 116.185 26.4284 119.648 26.3242L123.34 26.168V24.8594C123.34 23.0104 122.943 21.7148 122.148 20.9727C121.354 20.2305 120.234 19.8594 118.789 19.8594C117.669 19.8594 116.602 20.0221 115.586 20.3477C114.57 20.6732 113.607 21.0573 112.695 21.5L111.699 19.0391C112.663 18.5443 113.77 18.1211 115.02 17.7695C116.27 17.418 117.585 17.2422 118.965 17.2422ZM123.301 28.4531L120.039 28.5898C117.37 28.694 115.488 29.1302 114.395 29.8984C113.301 30.6667 112.754 31.7539 112.754 33.1602C112.754 34.3841 113.125 35.2891 113.867 35.875C114.609 36.4609 115.592 36.7539 116.816 36.7539C118.717 36.7539 120.273 36.2266 121.484 35.1719C122.695 34.1172 123.301 32.5352 123.301 30.4258V28.4531ZM136.445 39H133.184V8.60938H136.445V39ZM146.562 39H143.301V8.60938H146.562V39Z" fill="#09E58D"/>
<path d="M13.0697 43.9352C13.9417 43.9352 14.5993 44.164 15.0426 44.6217C15.4858 45.0745 15.7074 45.8044 15.7074 46.8113V52H14.5223V46.8691C14.5223 46.2284 14.3826 45.749 14.1031 45.4311C13.8285 45.1083 13.419 44.9469 12.8746 44.9469C12.1086 44.9469 11.5521 45.1685 11.2053 45.6117C10.8584 46.0549 10.685 46.7077 10.685 47.5701V52H9.49258V46.8691C9.49258 46.4404 9.42995 46.0839 9.30469 45.7996C9.18424 45.5154 9.00117 45.3034 8.75547 45.1637C8.51458 45.0191 8.20866 44.9469 7.83769 44.9469C7.31256 44.9469 6.89101 45.0553 6.57305 45.2721C6.25508 45.4889 6.02383 45.8117 5.8793 46.2404C5.73958 46.6644 5.66973 47.1871 5.66973 47.8086V52H4.47012V44.0797H5.43848L5.61914 45.1998H5.68418C5.84316 44.9252 6.0431 44.6939 6.28398 44.5061C6.52487 44.3182 6.79466 44.176 7.09336 44.0797C7.39206 43.9833 7.71002 43.9352 8.04726 43.9352C8.64948 43.9352 9.15293 44.0484 9.55762 44.2748C9.96712 44.4964 10.2634 44.8361 10.4465 45.2937H10.5115C10.7717 44.8361 11.1282 44.4964 11.5811 44.2748C12.0339 44.0484 12.5301 43.9352 13.0697 43.9352ZM21.1346 43.9496C22.0788 43.9496 22.7798 44.1616 23.2375 44.5855C23.6952 45.0095 23.924 45.6864 23.924 46.6162V52H23.0496L22.8184 50.8293H22.7605C22.5389 51.1184 22.3077 51.3617 22.0668 51.5592C21.8259 51.7519 21.5465 51.8988 21.2285 52C20.9154 52.0964 20.5299 52.1445 20.0723 52.1445C19.5905 52.1445 19.1617 52.0602 18.7859 51.8916C18.415 51.723 18.1211 51.4676 17.9043 51.1256C17.6923 50.7835 17.5863 50.3499 17.5863 49.8248C17.5863 49.0347 17.8995 48.4277 18.5258 48.0037C19.1521 47.5798 20.106 47.3485 21.3875 47.31L22.7533 47.2521V46.768C22.7533 46.0839 22.6064 45.6045 22.3125 45.3299C22.0186 45.0553 21.6043 44.918 21.0695 44.918C20.6552 44.918 20.2602 44.9782 19.8844 45.0986C19.5086 45.2191 19.1521 45.3612 18.8148 45.525L18.4463 44.6145C18.8028 44.4314 19.2123 44.2748 19.6748 44.1447C20.1373 44.0146 20.6239 43.9496 21.1346 43.9496ZM22.7389 48.0977L21.532 48.1482C20.5444 48.1868 19.8482 48.3482 19.4436 48.6324C19.0389 48.9167 18.8365 49.3189 18.8365 49.8393C18.8365 50.2921 18.9738 50.627 19.2484 50.8437C19.523 51.0605 19.8868 51.1689 20.3396 51.1689C21.043 51.1689 21.6187 50.9738 22.0668 50.5836C22.5148 50.1934 22.7389 49.608 22.7389 48.8275V48.0977ZM30.1461 43.9352C31.0855 43.9352 31.7962 44.1664 32.2779 44.6289C32.7597 45.0866 33.0006 45.8237 33.0006 46.8402V52H31.8154V46.9197C31.8154 46.2597 31.6637 45.7659 31.3602 45.4383C31.0615 45.1107 30.6014 44.9469 29.9799 44.9469C29.1031 44.9469 28.4864 45.195 28.1299 45.6912C27.7734 46.1874 27.5951 46.9077 27.5951 47.852V52H26.3955V44.0797H27.3639L27.5445 45.2215H27.6096C27.7782 44.9421 27.9926 44.7084 28.2527 44.5205C28.5129 44.3278 28.8044 44.1833 29.1271 44.0869C29.4499 43.9857 29.7896 43.9352 30.1461 43.9352ZM38.435 43.9496C39.3792 43.9496 40.0802 44.1616 40.5379 44.5855C40.9956 45.0095 41.2244 45.6864 41.2244 46.6162V52H40.35L40.1187 50.8293H40.0609C39.8393 51.1184 39.6081 51.3617 39.3672 51.5592C39.1263 51.7519 38.8469 51.8988 38.5289 52C38.2158 52.0964 37.8303 52.1445 37.3727 52.1445C36.8909 52.1445 36.4621 52.0602 36.0863 51.8916C35.7154 51.723 35.4215 51.4676 35.2047 51.1256C34.9927 50.7835 34.8867 50.3499 34.8867 49.8248C34.8867 49.0347 35.1999 48.4277 35.8262 48.0037C36.4525 47.5798 37.4064 47.3485 38.6879 47.31L40.0537 47.2521V46.768C40.0537 46.0839 39.9068 45.6045 39.6129 45.3299C39.319 45.0553 38.9047 44.918 38.3699 44.918C37.9556 44.918 37.5605 44.9782 37.1848 45.0986C36.809 45.2191 36.4525 45.3612 36.1152 45.525L35.7467 44.6145C36.1032 44.4314 36.5127 44.2748 36.9752 44.1447C37.4377 44.0146 37.9243 43.9496 38.435 43.9496ZM40.0393 48.0977L38.8324 48.1482C37.8448 48.1868 37.1486 48.3482 36.7439 48.6324C36.3393 48.9167 36.1369 49.3189 36.1369 49.8393C36.1369 50.2921 36.2742 50.627 36.5488 50.8437C36.8234 51.0605 37.1872 51.1689 37.64 51.1689C38.3434 51.1689 38.9191 50.9738 39.3672 50.5836C39.8152 50.1934 40.0393 49.608 40.0393 48.8275V48.0977ZM45.9072 55.5555C44.8666 55.5555 44.0645 55.3604 43.5008 54.9701C42.9371 54.5847 42.6553 54.0427 42.6553 53.3441C42.6553 52.8479 42.8119 52.424 43.125 52.0723C43.443 51.7206 43.8814 51.4869 44.4402 51.3713C44.2331 51.2749 44.0548 51.1304 43.9055 50.9377C43.7609 50.745 43.6887 50.5234 43.6887 50.2729C43.6887 49.9838 43.7682 49.7309 43.9271 49.5141C44.091 49.2924 44.3391 49.0805 44.6715 48.8781C44.2572 48.7095 43.9199 48.4253 43.6598 48.0254C43.4044 47.6207 43.2768 47.151 43.2768 46.6162C43.2768 46.0477 43.3948 45.5635 43.6309 45.1637C43.8669 44.759 44.209 44.4507 44.657 44.2387C45.1051 44.0267 45.6471 43.9207 46.283 43.9207C46.4227 43.9207 46.5624 43.9279 46.7022 43.9424C46.8467 43.952 46.984 43.9689 47.1141 43.993C47.2441 44.0122 47.3574 44.0363 47.4537 44.0652H50.1709V44.8385L48.7111 45.0191C48.8557 45.207 48.9761 45.4335 49.0725 45.6984C49.1688 45.9634 49.217 46.2573 49.217 46.5801C49.217 47.3702 48.9496 47.9989 48.4148 48.4662C47.8801 48.9287 47.1454 49.16 46.2107 49.16C45.9891 49.16 45.7627 49.1407 45.5314 49.1021C45.2954 49.2322 45.1147 49.3768 44.9895 49.5357C44.869 49.6947 44.8088 49.8778 44.8088 50.085C44.8088 50.2391 44.8546 50.362 44.9461 50.4535C45.0424 50.5451 45.1798 50.6125 45.358 50.6559C45.5363 50.6944 45.7507 50.7137 46.0012 50.7137H47.3959C48.2583 50.7137 48.9183 50.8943 49.376 51.2557C49.8385 51.617 50.0697 52.1445 50.0697 52.8383C50.0697 53.7151 49.7132 54.3872 49.0002 54.8545C48.2872 55.3218 47.2562 55.5555 45.9072 55.5555ZM45.9434 54.616C46.5986 54.616 47.1406 54.5486 47.5693 54.4137C48.0029 54.2836 48.3257 54.0933 48.5377 53.8428C48.7545 53.5971 48.8629 53.3032 48.8629 52.9611C48.8629 52.6432 48.7906 52.4023 48.6461 52.2385C48.5016 52.0795 48.2896 51.9735 48.0102 51.9205C47.7307 51.8627 47.3887 51.8338 46.984 51.8338H45.6109C45.2544 51.8338 44.9437 51.8892 44.6787 52C44.4137 52.1108 44.209 52.2746 44.0645 52.4914C43.9247 52.7082 43.8549 52.978 43.8549 53.3008C43.8549 53.7296 44.0355 54.0548 44.3969 54.2764C44.7582 54.5028 45.2737 54.616 45.9434 54.616ZM46.2541 48.2855C46.8274 48.2855 47.2586 48.141 47.5477 47.852C47.8367 47.5629 47.9813 47.1413 47.9813 46.5873C47.9813 45.9947 47.8343 45.5515 47.5404 45.2576C47.2466 44.9589 46.813 44.8096 46.2397 44.8096C45.6904 44.8096 45.2665 44.9637 44.9678 45.2721C44.6739 45.5756 44.527 46.0212 44.527 46.609C44.527 47.1486 44.6763 47.5629 44.975 47.852C45.2737 48.141 45.7001 48.2855 46.2541 48.2855ZM54.7814 43.9352C55.4559 43.9352 56.034 44.0845 56.5158 44.3832C56.9976 44.6819 57.3661 45.101 57.6215 45.6406C57.8768 46.1754 58.0045 46.8017 58.0045 47.5195V48.2639H52.534C52.5484 49.1937 52.7797 49.9019 53.2277 50.3885C53.6758 50.8751 54.3069 51.1184 55.1211 51.1184C55.6221 51.1184 56.0654 51.0726 56.4508 50.9811C56.8362 50.8895 57.2361 50.7546 57.6504 50.5764V51.6314C57.2505 51.8097 56.8531 51.9398 56.458 52.0217C56.0678 52.1036 55.6053 52.1445 55.0705 52.1445C54.3093 52.1445 53.6445 51.9904 53.076 51.682C52.5123 51.3689 52.0739 50.9112 51.7607 50.309C51.4476 49.7068 51.291 48.9697 51.291 48.0977C51.291 47.2449 51.4331 46.5078 51.7174 45.8863C52.0064 45.26 52.4111 44.7783 52.9314 44.441C53.4566 44.1038 54.0732 43.9352 54.7814 43.9352ZM54.767 44.918C54.1262 44.918 53.6156 45.1275 53.235 45.5467C52.8544 45.9658 52.6279 46.5512 52.5557 47.3027H56.7471C56.7423 46.8306 56.6676 46.4163 56.523 46.0598C56.3833 45.6984 56.1689 45.419 55.8799 45.2215C55.5908 45.0191 55.2199 44.918 54.767 44.918ZM68.642 43.9352C69.514 43.9352 70.1716 44.164 70.6148 44.6217C71.0581 45.0745 71.2797 45.8044 71.2797 46.8113V52H70.0945V46.8691C70.0945 46.2284 69.9548 45.749 69.6754 45.4311C69.4008 45.1083 68.9913 44.9469 68.4469 44.9469C67.6809 44.9469 67.1244 45.1685 66.7775 45.6117C66.4307 46.0549 66.2572 46.7077 66.2572 47.5701V52H65.0648V46.8691C65.0648 46.4404 65.0022 46.0839 64.877 45.7996C64.7565 45.5154 64.5734 45.3034 64.3277 45.1637C64.0868 45.0191 63.7809 44.9469 63.41 44.9469C62.8848 44.9469 62.4633 45.0553 62.1453 45.2721C61.8273 45.4889 61.5961 45.8117 61.4516 46.2404C61.3118 46.6644 61.242 47.1871 61.242 47.8086V52H60.0424V44.0797H61.0107L61.1914 45.1998H61.2564C61.4154 44.9252 61.6154 44.6939 61.8562 44.5061C62.0971 44.3182 62.3669 44.176 62.6656 44.0797C62.9643 43.9833 63.2823 43.9352 63.6195 43.9352C64.2217 43.9352 64.7252 44.0484 65.1299 44.2748C65.5394 44.4964 65.8357 44.8361 66.0187 45.2937H66.0838C66.3439 44.8361 66.7005 44.4964 67.1533 44.2748C67.6062 44.0484 68.1024 43.9352 68.642 43.9352ZM76.7936 43.9352C77.468 43.9352 78.0462 44.0845 78.5279 44.3832C79.0097 44.6819 79.3783 45.101 79.6336 45.6406C79.8889 46.1754 80.0166 46.8017 80.0166 47.5195V48.2639H74.5461C74.5605 49.1937 74.7918 49.9019 75.2398 50.3885C75.6879 50.8751 76.319 51.1184 77.1332 51.1184C77.6342 51.1184 78.0775 51.0726 78.4629 50.9811C78.8483 50.8895 79.2482 50.7546 79.6625 50.5764V51.6314C79.2626 51.8097 78.8652 51.9398 78.4701 52.0217C78.0799 52.1036 77.6174 52.1445 77.0826 52.1445C76.3214 52.1445 75.6566 51.9904 75.0881 51.682C74.5244 51.3689 74.086 50.9112 73.7728 50.309C73.4597 49.7068 73.3031 48.9697 73.3031 48.0977C73.3031 47.2449 73.4452 46.5078 73.7295 45.8863C74.0186 45.26 74.4232 44.7783 74.9436 44.441C75.4687 44.1038 76.0853 43.9352 76.7936 43.9352ZM76.7791 44.918C76.1383 44.918 75.6277 45.1275 75.2471 45.5467C74.8665 45.9658 74.64 46.5512 74.5678 47.3027H78.7592C78.7544 46.8306 78.6797 46.4163 78.5352 46.0598C78.3954 45.6984 78.1811 45.419 77.892 45.2215C77.6029 45.0191 77.232 44.918 76.7791 44.918ZM85.8051 43.9352C86.7445 43.9352 87.4551 44.1664 87.9369 44.6289C88.4187 45.0866 88.6596 45.8237 88.6596 46.8402V52H87.4744V46.9197C87.4744 46.2597 87.3227 45.7659 87.0191 45.4383C86.7204 45.1107 86.2603 44.9469 85.6389 44.9469C84.762 44.9469 84.1454 45.195 83.7889 45.6912C83.4324 46.1874 83.2541 46.9077 83.2541 47.852V52H82.0545V44.0797H83.0228L83.2035 45.2215H83.2686C83.4372 44.9421 83.6516 44.7084 83.9117 44.5205C84.1719 44.3278 84.4633 44.1833 84.7861 44.0869C85.1089 43.9857 85.4486 43.9352 85.8051 43.9352ZM93.6893 51.1617C93.8868 51.1617 94.0891 51.1449 94.2963 51.1111C94.5035 51.0774 94.6721 51.0365 94.8022 50.9883V51.9205C94.6624 51.9831 94.4673 52.0361 94.2168 52.0795C93.9711 52.1229 93.7302 52.1445 93.4941 52.1445C93.075 52.1445 92.6944 52.0723 92.3523 51.9277C92.0103 51.7784 91.7357 51.5279 91.5285 51.1762C91.3262 50.8245 91.225 50.3379 91.225 49.7164V45.0191H90.0977V44.4338L91.2322 43.9641L91.7092 42.2441H92.4318V44.0797H94.7516V45.0191H92.4318V49.6803C92.4318 50.1765 92.5451 50.5475 92.7715 50.7932C93.0027 51.0389 93.3087 51.1617 93.6893 51.1617ZM105.375 49.832C105.375 50.3379 105.247 50.7643 104.992 51.1111C104.741 51.4532 104.38 51.7109 103.908 51.8844C103.44 52.0578 102.881 52.1445 102.231 52.1445C101.677 52.1445 101.198 52.1012 100.793 52.0145C100.388 51.9277 100.034 51.8049 99.7307 51.6459V50.5402C100.053 50.6992 100.439 50.8437 100.887 50.9738C101.335 51.1039 101.793 51.1689 102.26 51.1689C102.944 51.1689 103.44 51.0581 103.749 50.8365C104.057 50.6149 104.211 50.3138 104.211 49.9332C104.211 49.7164 104.149 49.5261 104.023 49.3623C103.903 49.1937 103.698 49.0323 103.409 48.8781C103.12 48.7191 102.72 48.5457 102.209 48.3578C101.704 48.1651 101.265 47.9748 100.894 47.7869C100.528 47.5942 100.244 47.3605 100.041 47.0859C99.8439 46.8113 99.7451 46.4548 99.7451 46.0164C99.7451 45.3467 100.015 44.8337 100.554 44.4771C101.099 44.1158 101.812 43.9352 102.694 43.9352C103.171 43.9352 103.616 43.9833 104.03 44.0797C104.45 44.1712 104.84 44.2965 105.201 44.4555L104.796 45.4166C104.469 45.2769 104.12 45.1589 103.749 45.0625C103.378 44.9661 102.999 44.918 102.614 44.918C102.06 44.918 101.634 45.0095 101.335 45.1926C101.041 45.3757 100.894 45.6262 100.894 45.9441C100.894 46.1898 100.962 46.3922 101.096 46.5512C101.236 46.7102 101.458 46.8595 101.761 46.9992C102.065 47.1389 102.465 47.3027 102.961 47.4906C103.457 47.6737 103.886 47.864 104.247 48.0615C104.609 48.2542 104.886 48.4903 105.078 48.7697C105.276 49.0443 105.375 49.3984 105.375 49.832ZM106.054 44.0797H107.34L109.089 48.6758C109.19 48.9456 109.284 49.2057 109.371 49.4562C109.458 49.702 109.535 49.938 109.602 50.1645C109.67 50.3909 109.723 50.6101 109.761 50.8221H109.812C109.879 50.5812 109.976 50.2656 110.101 49.8754C110.226 49.4803 110.361 49.0781 110.505 48.6686L112.16 44.0797H113.454L110.007 53.1635C109.824 53.6501 109.609 54.074 109.364 54.4354C109.123 54.7967 108.829 55.0737 108.482 55.2664C108.135 55.4639 107.716 55.5627 107.225 55.5627C106.998 55.5627 106.798 55.5482 106.625 55.5193C106.451 55.4952 106.302 55.4663 106.177 55.4326V54.4715C106.283 54.4956 106.41 54.5173 106.56 54.5365C106.714 54.5558 106.873 54.5654 107.037 54.5654C107.335 54.5654 107.593 54.5076 107.81 54.392C108.032 54.2812 108.222 54.1174 108.381 53.9006C108.54 53.6838 108.677 53.426 108.793 53.1273L109.226 52.0145L106.054 44.0797ZM119.842 49.832C119.842 50.3379 119.715 50.7643 119.459 51.1111C119.209 51.4532 118.847 51.7109 118.375 51.8844C117.908 52.0578 117.349 52.1445 116.699 52.1445C116.145 52.1445 115.665 52.1012 115.261 52.0145C114.856 51.9277 114.502 51.8049 114.198 51.6459V50.5402C114.521 50.6992 114.906 50.8437 115.354 50.9738C115.803 51.1039 116.26 51.1689 116.728 51.1689C117.412 51.1689 117.908 51.0581 118.216 50.8365C118.525 50.6149 118.679 50.3138 118.679 49.9332C118.679 49.7164 118.616 49.5261 118.491 49.3623C118.37 49.1937 118.166 49.0323 117.877 48.8781C117.587 48.7191 117.188 48.5457 116.677 48.3578C116.171 48.1651 115.733 47.9748 115.362 47.7869C114.996 47.5942 114.711 47.3605 114.509 47.0859C114.311 46.8113 114.213 46.4548 114.213 46.0164C114.213 45.3467 114.482 44.8337 115.022 44.4771C115.566 44.1158 116.279 43.9352 117.161 43.9352C117.638 43.9352 118.084 43.9833 118.498 44.0797C118.917 44.1712 119.307 44.2965 119.669 44.4555L119.264 45.4166C118.936 45.2769 118.587 45.1589 118.216 45.0625C117.845 44.9661 117.467 44.918 117.082 44.918C116.528 44.918 116.101 45.0095 115.803 45.1926C115.509 45.3757 115.362 45.6262 115.362 45.9441C115.362 46.1898 115.429 46.3922 115.564 46.5512C115.704 46.7102 115.925 46.8595 116.229 46.9992C116.532 47.1389 116.932 47.3027 117.429 47.4906C117.925 47.6737 118.354 47.864 118.715 48.0615C119.076 48.2542 119.353 48.4903 119.546 48.7697C119.743 49.0443 119.842 49.3984 119.842 49.832ZM124.33 51.1617C124.527 51.1617 124.73 51.1449 124.937 51.1111C125.144 51.0774 125.313 51.0365 125.443 50.9883V51.9205C125.303 51.9831 125.108 52.0361 124.857 52.0795C124.612 52.1229 124.371 52.1445 124.135 52.1445C123.716 52.1445 123.335 52.0723 122.993 51.9277C122.651 51.7784 122.376 51.5279 122.169 51.1762C121.967 50.8245 121.866 50.3379 121.866 49.7164V45.0191H120.738V44.4338L121.873 43.9641L122.35 42.2441H123.072V44.0797H125.392V45.0191H123.072V49.6803C123.072 50.1765 123.186 50.5475 123.412 50.7932C123.643 51.0389 123.949 51.1617 124.33 51.1617ZM130.097 43.9352C130.771 43.9352 131.349 44.0845 131.831 44.3832C132.313 44.6819 132.681 45.101 132.937 45.6406C133.192 46.1754 133.32 46.8017 133.32 47.5195V48.2639H127.849C127.864 49.1937 128.095 49.9019 128.543 50.3885C128.991 50.8751 129.622 51.1184 130.436 51.1184C130.937 51.1184 131.381 51.0726 131.766 50.9811C132.151 50.8895 132.551 50.7546 132.966 50.5764V51.6314C132.566 51.8097 132.168 51.9398 131.773 52.0217C131.383 52.1036 130.921 52.1445 130.386 52.1445C129.625 52.1445 128.96 51.9904 128.391 51.682C127.828 51.3689 127.389 50.9112 127.076 50.309C126.763 49.7068 126.606 48.9697 126.606 48.0977C126.606 47.2449 126.748 46.5078 127.033 45.8863C127.322 45.26 127.726 44.7783 128.247 44.441C128.772 44.1038 129.388 43.9352 130.097 43.9352ZM130.082 44.918C129.441 44.918 128.931 45.1275 128.55 45.5467C128.17 45.9658 127.943 46.5512 127.871 47.3027H132.062C132.057 46.8306 131.983 46.4163 131.838 46.0598C131.699 45.6984 131.484 45.419 131.195 45.2215C130.906 45.0191 130.535 44.918 130.082 44.918ZM143.957 43.9352C144.829 43.9352 145.487 44.164 145.93 44.6217C146.373 45.0745 146.595 45.8044 146.595 46.8113V52H145.41V46.8691C145.41 46.2284 145.27 45.749 144.991 45.4311C144.716 45.1083 144.306 44.9469 143.762 44.9469C142.996 44.9469 142.44 45.1685 142.093 45.6117C141.746 46.0549 141.572 46.7077 141.572 47.5701V52H140.38V46.8691C140.38 46.4404 140.317 46.0839 140.192 45.7996C140.072 45.5154 139.889 45.3034 139.643 45.1637C139.402 45.0191 139.096 44.9469 138.725 44.9469C138.2 44.9469 137.779 45.0553 137.461 45.2721C137.143 45.4889 136.911 45.8117 136.767 46.2404C136.627 46.6644 136.557 47.1871 136.557 47.8086V52H135.358V44.0797H136.326L136.507 45.1998H136.572C136.731 44.9252 136.931 44.6939 137.171 44.5061C137.412 44.3182 137.682 44.176 137.981 44.0797C138.28 43.9833 138.598 43.9352 138.935 43.9352C139.537 43.9352 140.04 44.0484 140.445 44.2748C140.855 44.4964 141.151 44.8361 141.334 45.2937H141.399C141.659 44.8361 142.016 44.4964 142.469 44.2748C142.921 44.0484 143.418 43.9352 143.957 43.9352Z" fill="white"/>
</svg>
